<svg width="181" height="40" viewBox="0 0 181 40" fill="none" xmlns="http://www.w3.org/2000/svg">
<path d="M50.8649 31.2784C49.6895 31.2784 48.514 31.2372 47.3385 31.1547C46.1837 31.0928 44.9773 30.9278 43.7193 30.6597V9.87243C44.7092 9.68683 45.7919 9.55278 46.9673 9.47029C48.1428 9.36718 49.2358 9.31563 50.2463 9.31563C51.6073 9.31563 52.855 9.41874 53.9892 9.62496C55.1441 9.81056 56.1339 10.1405 56.9588 10.6148C57.7837 11.0891 58.423 11.7181 58.8767 12.5018C59.351 13.2648 59.5882 14.2134 59.5882 15.3477C59.5882 17.0593 58.7633 18.4101 57.1135 19.3999C58.4746 19.9155 59.4026 20.6167 59.8975 21.5034C60.3925 22.3902 60.6399 23.3904 60.6399 24.504C60.6399 26.7518 59.815 28.4428 58.1652 29.5771C56.5361 30.7113 54.1026 31.2784 50.8649 31.2784ZM48.4212 21.6581V27.1952C48.7718 27.2364 49.1533 27.2674 49.5657 27.288C49.9782 27.3086 50.4319 27.3189 50.9268 27.3189C52.3704 27.3189 53.5355 27.1127 54.4223 26.7002C55.3091 26.2878 55.7524 25.5248 55.7524 24.4112C55.7524 23.4213 55.3812 22.7201 54.6388 22.3077C53.8964 21.8746 52.8344 21.6581 51.4527 21.6581H48.4212ZM48.4212 17.977H50.7721C52.2569 17.977 53.319 17.7914 53.9583 17.4202C54.5976 17.0284 54.9172 16.4097 54.9172 15.5642C54.9172 14.6981 54.5873 14.0897 53.9274 13.7391C53.2674 13.3885 52.2982 13.2132 51.0196 13.2132C50.6072 13.2132 50.1638 13.2236 49.6895 13.2442C49.2152 13.2442 48.7924 13.2648 48.4212 13.306V17.977ZM68.8025 31H64.1934V14.729H68.8025V31ZM69.2356 10.0271C69.2356 10.8726 68.9572 11.5428 68.4004 12.0378C67.8642 12.5121 67.2249 12.7492 66.4825 12.7492C65.7401 12.7492 65.0905 12.5121 64.5337 12.0378C63.9975 11.5428 63.7294 10.8726 63.7294 10.0271C63.7294 9.18158 63.9975 8.52167 64.5337 8.04735C65.0905 7.55242 65.7401 7.30495 66.4825 7.30495C67.2249 7.30495 67.8642 7.55242 68.4004 8.04735C68.9572 8.52167 69.2356 9.18158 69.2356 10.0271ZM72.9804 10.6767L77.5895 9.9343V14.729H83.1266V18.5647H77.5895V24.2874C77.5895 25.2567 77.7545 26.03 78.0845 26.6074C78.4351 27.1849 79.1259 27.4736 80.157 27.4736C80.652 27.4736 81.1572 27.4323 81.6728 27.3498C82.2089 27.2467 82.6936 27.1127 83.1266 26.9477L83.7762 30.536C83.2194 30.7628 82.6008 30.9588 81.9202 31.1237C81.2397 31.2887 80.4045 31.3712 79.4146 31.3712C78.1567 31.3712 77.1152 31.2062 76.2903 30.8763C75.4654 30.5257 74.8055 30.0514 74.3106 29.4533C73.8157 28.8347 73.4651 28.0923 73.2589 27.2261C73.0732 26.36 72.9804 25.401 72.9804 24.3493V10.6767ZM86.7253 10.6767L91.3344 9.9343V14.729H96.8715V18.5647H91.3344V24.2874C91.3344 25.2567 91.4994 26.03 91.8293 26.6074C92.1799 27.1849 92.8708 27.4736 93.9019 27.4736C94.3968 27.4736 94.9021 27.4323 95.4176 27.3498C95.9538 27.2467 96.4384 27.1127 96.8715 26.9477L97.5211 30.536C96.9643 30.7628 96.3456 30.9588 95.6651 31.1237C94.9845 31.2887 94.1493 31.3712 93.1595 31.3712C91.9015 31.3712 90.8601 31.2062 90.0352 30.8763C89.2103 30.5257 88.5504 30.0514 88.0554 29.4533C87.5605 28.8347 87.2099 28.0923 87.0037 27.2261C86.8181 26.36 86.7253 25.401 86.7253 24.3493V10.6767ZM115.24 22.8336C115.24 24.1121 115.054 25.2876 114.683 26.36C114.312 27.4117 113.776 28.3191 113.075 29.0821C112.373 29.8245 111.528 30.402 110.538 30.8144C109.569 31.2268 108.476 31.4331 107.259 31.4331C106.063 31.4331 104.97 31.2268 103.98 30.8144C103.011 30.402 102.176 29.8245 101.475 29.0821C100.773 28.3191 100.227 27.4117 99.8351 26.36C99.4432 25.2876 99.2473 24.1121 99.2473 22.8336C99.2473 21.555 99.4432 20.3898 99.8351 19.3381C100.248 18.2863 100.804 17.3893 101.505 16.6469C102.227 15.9045 103.073 15.327 104.042 14.9146C105.032 14.5021 106.104 14.2959 107.259 14.2959C108.435 14.2959 109.507 14.5021 110.476 14.9146C111.466 15.327 112.312 15.9045 113.013 16.6469C113.714 17.3893 114.26 18.2863 114.652 19.3381C115.044 20.3898 115.24 21.555 115.24 22.8336ZM110.538 22.8336C110.538 21.4106 110.249 20.297 109.672 19.4927C109.115 18.6679 108.311 18.2554 107.259 18.2554C106.207 18.2554 105.393 18.6679 104.815 19.4927C104.238 20.297 103.949 21.4106 103.949 22.8336C103.949 24.2565 104.238 25.3907 104.815 26.2362C105.393 27.0611 106.207 27.4736 107.259 27.4736C108.311 27.4736 109.115 27.0611 109.672 26.2362C110.249 25.3907 110.538 24.2565 110.538 22.8336ZM128.616 18.8122C128.204 18.7091 127.719 18.606 127.162 18.5029C126.606 18.3791 126.008 18.3173 125.368 18.3173C125.08 18.3173 124.729 18.3482 124.317 18.4101C123.925 18.4513 123.626 18.5029 123.419 18.5647V31H118.81V15.5951C119.635 15.3064 120.604 15.0383 121.718 14.7909C122.852 14.5228 124.11 14.3887 125.492 14.3887C125.739 14.3887 126.038 14.4093 126.389 14.4506C126.74 14.4712 127.09 14.5125 127.441 14.5743C127.791 14.6156 128.142 14.6774 128.493 14.7599C128.843 14.8218 129.142 14.9043 129.39 15.0074L128.616 18.8122ZM130.785 22.9882C130.785 21.5447 131.002 20.2867 131.435 19.2143C131.888 18.1214 132.476 17.214 133.198 16.4922C133.92 15.7704 134.744 15.2239 135.672 14.8527C136.621 14.4815 137.59 14.2959 138.58 14.2959C140.89 14.2959 142.715 15.0074 144.055 16.4303C145.396 17.8326 146.066 19.9052 146.066 22.648C146.066 22.916 146.056 23.2151 146.035 23.545C146.015 23.8544 145.994 24.1328 145.973 24.3802H135.518C135.621 25.3289 136.064 26.0816 136.848 26.6384C137.632 27.1952 138.683 27.4736 140.003 27.4736C140.849 27.4736 141.674 27.4014 142.478 27.257C143.303 27.0921 143.973 26.8962 144.489 26.6693L145.107 30.4123C144.86 30.536 144.53 30.6597 144.117 30.7835C143.705 30.9072 143.241 31.0103 142.725 31.0928C142.23 31.1959 141.694 31.2784 141.117 31.3403C140.539 31.4021 139.962 31.4331 139.384 31.4331C137.92 31.4331 136.642 31.2165 135.549 30.7835C134.476 30.3504 133.579 29.7627 132.858 29.0203C132.156 28.2572 131.63 27.3602 131.28 26.329C130.95 25.2979 130.785 24.1843 130.785 22.9882ZM141.612 21.225C141.591 20.8332 141.519 20.4517 141.395 20.0805C141.292 19.7093 141.117 19.3793 140.869 19.0906C140.642 18.8019 140.343 18.5647 139.972 18.3791C139.622 18.1935 139.178 18.1007 138.642 18.1007C138.127 18.1007 137.683 18.1935 137.312 18.3791C136.941 18.5441 136.631 18.771 136.384 19.0597C136.136 19.3484 135.941 19.6887 135.796 20.0805C135.672 20.4517 135.58 20.8332 135.518 21.225H141.612ZM149.623 15.2858C150.407 15.0589 151.417 14.8527 152.654 14.6671C153.892 14.4609 155.191 14.3578 156.552 14.3578C157.934 14.3578 159.078 14.5434 159.986 14.9146C160.914 15.2652 161.646 15.7704 162.182 16.4303C162.718 17.0902 163.1 17.8739 163.327 18.7813C163.553 19.6887 163.667 20.6991 163.667 21.8128V31H159.058V22.3696C159.058 20.8848 158.862 19.833 158.47 19.2143C158.078 18.5957 157.346 18.2863 156.274 18.2863C155.944 18.2863 155.593 18.307 155.222 18.3482C154.851 18.3688 154.521 18.3998 154.232 18.441V31H149.623V15.2858ZM167.684 10.6767L172.293 9.9343V14.729H177.83V18.5647H172.293V24.2874C172.293 25.2567 172.458 26.03 172.788 26.6074C173.139 27.1849 173.829 27.4736 174.861 27.4736C175.356 27.4736 175.861 27.4323 176.376 27.3498C176.913 27.2467 177.397 27.1127 177.83 26.9477L178.48 30.536C177.923 30.7628 177.304 30.9588 176.624 31.1237C175.943 31.2887 175.108 31.3712 174.118 31.3712C172.86 31.3712 171.819 31.2062 170.994 30.8763C170.169 30.5257 169.509 30.0514 169.014 29.4533C168.519 28.8347 168.169 28.0923 167.962 27.2261C167.777 26.36 167.684 25.401 167.684 24.3493V10.6767Z" fill="#263238"/>
<rect y="3.4375" width="10.3112" height="10.3112" fill="#3EBA59"/>
<rect y="13.749" width="10.3112" height="11.4568" fill="#83EBFF"/>
<rect y="25.2051" width="10.3112" height="10.3112" fill="#20C1E1"/>
<rect x="10.311" y="3.4375" width="11.4568" height="10.3112" fill="#83EBFF"/>
<rect x="10.311" y="25.2051" width="11.4568" height="10.3112" fill="#83EBFF"/>
<rect x="21.7681" y="3.4375" width="10.3112" height="10.3112" fill="#20C1E1"/>
<rect x="21.7681" y="13.749" width="10.3112" height="11.4568" fill="#83EBFF"/>
<rect x="21.7681" y="25.2051" width="10.3112" height="10.3112" fill="#3EBA59"/>
<rect x="5.72852" y="9.16602" width="20.6223" height="20.6223" fill="white"/>
</svg>
